<mxfile host="app.diagrams.net" modified="2023-11-03T08:52:17.052Z" agent="Mozilla/5.0 (Windows NT 10.0; Win64; x64) AppleWebKit/537.36 (KHTML, like Gecko) Chrome/118.0.0.0 Safari/537.36" etag="gIoYDPV6pI-lFIycP9Dk" version="22.0.8" type="github">
  <diagram name="Page-1" id="rWTutappl7ckD_M0MpDS">
    <mxGraphModel dx="2901" dy="1140" grid="1" gridSize="10" guides="1" tooltips="1" connect="1" arrows="1" fold="1" page="1" pageScale="1" pageWidth="827" pageHeight="1169" math="0" shadow="0">
      <root>
        <mxCell id="0" />
        <mxCell id="1" parent="0" />
        <mxCell id="ZLvA4eqqemo8EkUTMBz7-1" value="" style="rounded=0;whiteSpace=wrap;html=1;" vertex="1" parent="1">
          <mxGeometry x="170" y="786.87" width="418.75" height="60" as="geometry" />
        </mxCell>
        <mxCell id="ZLvA4eqqemo8EkUTMBz7-2" value="" style="rounded=0;whiteSpace=wrap;html=1;" vertex="1" parent="1">
          <mxGeometry x="170" y="761.87" width="418.75" height="25" as="geometry" />
        </mxCell>
        <mxCell id="ZLvA4eqqemo8EkUTMBz7-3" value="" style="rounded=0;whiteSpace=wrap;html=1;" vertex="1" parent="1">
          <mxGeometry x="198.12" y="278.75" width="290" height="60" as="geometry" />
        </mxCell>
        <mxCell id="ZLvA4eqqemo8EkUTMBz7-4" value="" style="rounded=0;whiteSpace=wrap;html=1;" vertex="1" parent="1">
          <mxGeometry x="198.12" y="253.75" width="290" height="25" as="geometry" />
        </mxCell>
        <mxCell id="ZLvA4eqqemo8EkUTMBz7-5" value="" style="rounded=0;whiteSpace=wrap;html=1;" vertex="1" parent="1">
          <mxGeometry x="290.12" y="67.5" width="125" height="60" as="geometry" />
        </mxCell>
        <mxCell id="ZLvA4eqqemo8EkUTMBz7-6" value="" style="rounded=0;whiteSpace=wrap;html=1;" vertex="1" parent="1">
          <mxGeometry x="290.12" y="42.49999999999999" width="125" height="25" as="geometry" />
        </mxCell>
        <mxCell id="ZLvA4eqqemo8EkUTMBz7-7" value="" style="rounded=0;whiteSpace=wrap;html=1;" vertex="1" parent="1">
          <mxGeometry x="253.12" y="174.37" width="200" height="60" as="geometry" />
        </mxCell>
        <mxCell id="ZLvA4eqqemo8EkUTMBz7-8" value="" style="rounded=0;whiteSpace=wrap;html=1;" vertex="1" parent="1">
          <mxGeometry x="253.12" y="149.37" width="200" height="25" as="geometry" />
        </mxCell>
        <mxCell id="ZLvA4eqqemo8EkUTMBz7-9" value="" style="rounded=0;whiteSpace=wrap;html=1;" vertex="1" parent="1">
          <mxGeometry x="198.12" y="886.87" width="350" height="60" as="geometry" />
        </mxCell>
        <mxCell id="ZLvA4eqqemo8EkUTMBz7-10" value="" style="rounded=0;whiteSpace=wrap;html=1;" vertex="1" parent="1">
          <mxGeometry x="198.12" y="861.87" width="350" height="25" as="geometry" />
        </mxCell>
        <mxCell id="ZLvA4eqqemo8EkUTMBz7-11" value="" style="rounded=0;whiteSpace=wrap;html=1;" vertex="1" parent="1">
          <mxGeometry x="263.12" y="686.87" width="180" height="60" as="geometry" />
        </mxCell>
        <mxCell id="ZLvA4eqqemo8EkUTMBz7-12" value="" style="rounded=0;whiteSpace=wrap;html=1;" vertex="1" parent="1">
          <mxGeometry x="263.12" y="661.87" width="180" height="25" as="geometry" />
        </mxCell>
        <mxCell id="ZLvA4eqqemo8EkUTMBz7-13" value="" style="rounded=0;whiteSpace=wrap;html=1;" vertex="1" parent="1">
          <mxGeometry x="-30" y="420" width="180" height="60" as="geometry" />
        </mxCell>
        <mxCell id="ZLvA4eqqemo8EkUTMBz7-14" value="" style="rounded=0;whiteSpace=wrap;html=1;" vertex="1" parent="1">
          <mxGeometry x="-30" y="395" width="180" height="25" as="geometry" />
        </mxCell>
        <mxCell id="ZLvA4eqqemo8EkUTMBz7-15" value="" style="rounded=0;whiteSpace=wrap;html=1;" vertex="1" parent="1">
          <mxGeometry x="-10" y="311.88" width="140" height="60" as="geometry" />
        </mxCell>
        <mxCell id="ZLvA4eqqemo8EkUTMBz7-16" value="" style="rounded=0;whiteSpace=wrap;html=1;" vertex="1" parent="1">
          <mxGeometry x="-10" y="286.88" width="140" height="25" as="geometry" />
        </mxCell>
        <mxCell id="ZLvA4eqqemo8EkUTMBz7-17" value="" style="rounded=0;whiteSpace=wrap;html=1;" vertex="1" parent="1">
          <mxGeometry x="205.87" y="381.87" width="310" height="60" as="geometry" />
        </mxCell>
        <mxCell id="ZLvA4eqqemo8EkUTMBz7-18" value="" style="rounded=0;whiteSpace=wrap;html=1;" vertex="1" parent="1">
          <mxGeometry x="205.87" y="356.87" width="310" height="25" as="geometry" />
        </mxCell>
        <mxCell id="ZLvA4eqqemo8EkUTMBz7-19" value="" style="rounded=0;whiteSpace=wrap;html=1;" vertex="1" parent="1">
          <mxGeometry x="262.37" y="481.87" width="203.5" height="60" as="geometry" />
        </mxCell>
        <mxCell id="ZLvA4eqqemo8EkUTMBz7-20" value="" style="rounded=0;whiteSpace=wrap;html=1;" vertex="1" parent="1">
          <mxGeometry x="262.37" y="456.87" width="203.5" height="25" as="geometry" />
        </mxCell>
        <mxCell id="ZLvA4eqqemo8EkUTMBz7-21" value="" style="rounded=0;whiteSpace=wrap;html=1;" vertex="1" parent="1">
          <mxGeometry x="-470" y="480" width="260" height="60" as="geometry" />
        </mxCell>
        <mxCell id="ZLvA4eqqemo8EkUTMBz7-22" value="" style="rounded=0;whiteSpace=wrap;html=1;" vertex="1" parent="1">
          <mxGeometry x="-470" y="455" width="260" height="25" as="geometry" />
        </mxCell>
        <mxCell id="ZLvA4eqqemo8EkUTMBz7-23" value="" style="rounded=0;whiteSpace=wrap;html=1;" vertex="1" parent="1">
          <mxGeometry x="-510" y="380" width="350" height="60" as="geometry" />
        </mxCell>
        <mxCell id="ZLvA4eqqemo8EkUTMBz7-24" value="" style="rounded=0;whiteSpace=wrap;html=1;" vertex="1" parent="1">
          <mxGeometry x="-510" y="355" width="350" height="25" as="geometry" />
        </mxCell>
        <mxCell id="ZLvA4eqqemo8EkUTMBz7-25" value="" style="rounded=0;whiteSpace=wrap;html=1;" vertex="1" parent="1">
          <mxGeometry x="-435" y="55" width="200" height="25" as="geometry" />
        </mxCell>
        <mxCell id="ZLvA4eqqemo8EkUTMBz7-26" value="" style="rounded=0;whiteSpace=wrap;html=1;" vertex="1" parent="1">
          <mxGeometry x="-435" y="80" width="200" height="60" as="geometry" />
        </mxCell>
        <mxCell id="ZLvA4eqqemo8EkUTMBz7-27" value="" style="rounded=0;whiteSpace=wrap;html=1;" vertex="1" parent="1">
          <mxGeometry x="-460" y="255" width="250" height="25" as="geometry" />
        </mxCell>
        <mxCell id="ZLvA4eqqemo8EkUTMBz7-28" value="" style="rounded=0;whiteSpace=wrap;html=1;" vertex="1" parent="1">
          <mxGeometry x="-460" y="280" width="250" height="60" as="geometry" />
        </mxCell>
        <mxCell id="ZLvA4eqqemo8EkUTMBz7-29" value="" style="rounded=0;whiteSpace=wrap;html=1;" vertex="1" parent="1">
          <mxGeometry x="-435" y="155" width="200" height="25" as="geometry" />
        </mxCell>
        <mxCell id="ZLvA4eqqemo8EkUTMBz7-30" value="" style="rounded=0;whiteSpace=wrap;html=1;" vertex="1" parent="1">
          <mxGeometry x="-435" y="180" width="200" height="60" as="geometry" />
        </mxCell>
        <mxCell id="ZLvA4eqqemo8EkUTMBz7-31" value="School ID" style="text;html=1;strokeColor=none;fillColor=none;align=center;verticalAlign=middle;whiteSpace=wrap;rounded=0;" vertex="1" parent="1">
          <mxGeometry x="-375" y="95" width="60" height="30" as="geometry" />
        </mxCell>
        <mxCell id="ZLvA4eqqemo8EkUTMBz7-32" value="School Name" style="text;html=1;strokeColor=none;fillColor=none;align=center;verticalAlign=middle;whiteSpace=wrap;rounded=0;" vertex="1" parent="1">
          <mxGeometry x="-295" y="95" width="60" height="30" as="geometry" />
        </mxCell>
        <mxCell id="ZLvA4eqqemo8EkUTMBz7-33" value="Class ID" style="text;html=1;strokeColor=none;fillColor=none;align=center;verticalAlign=middle;whiteSpace=wrap;rounded=0;" vertex="1" parent="1">
          <mxGeometry x="-365" y="195" width="60" height="30" as="geometry" />
        </mxCell>
        <mxCell id="ZLvA4eqqemo8EkUTMBz7-34" value="School ID" style="text;html=1;strokeColor=none;fillColor=none;align=center;verticalAlign=middle;whiteSpace=wrap;rounded=0;" vertex="1" parent="1">
          <mxGeometry x="-425" y="195" width="60" height="30" as="geometry" />
        </mxCell>
        <mxCell id="ZLvA4eqqemo8EkUTMBz7-35" value="Class Name" style="text;html=1;strokeColor=none;fillColor=none;align=center;verticalAlign=middle;whiteSpace=wrap;rounded=0;" vertex="1" parent="1">
          <mxGeometry x="-295" y="195" width="60" height="30" as="geometry" />
        </mxCell>
        <mxCell id="ZLvA4eqqemo8EkUTMBz7-36" value="Pupil ID" style="text;html=1;strokeColor=none;fillColor=none;align=center;verticalAlign=middle;whiteSpace=wrap;rounded=0;" vertex="1" parent="1">
          <mxGeometry x="-450" y="300" width="60" height="30" as="geometry" />
        </mxCell>
        <mxCell id="ZLvA4eqqemo8EkUTMBz7-37" value="Pupil first name" style="text;html=1;strokeColor=none;fillColor=none;align=center;verticalAlign=middle;whiteSpace=wrap;rounded=0;" vertex="1" parent="1">
          <mxGeometry x="-390" y="300" width="60" height="30" as="geometry" />
        </mxCell>
        <mxCell id="ZLvA4eqqemo8EkUTMBz7-38" value="pupil family name" style="text;html=1;strokeColor=none;fillColor=none;align=center;verticalAlign=middle;whiteSpace=wrap;rounded=0;" vertex="1" parent="1">
          <mxGeometry x="-320" y="300" width="60" height="30" as="geometry" />
        </mxCell>
        <mxCell id="ZLvA4eqqemo8EkUTMBz7-39" value="subject id" style="text;html=1;strokeColor=none;fillColor=none;align=center;verticalAlign=middle;whiteSpace=wrap;rounded=0;" vertex="1" parent="1">
          <mxGeometry x="295.12" y="87.5" width="60" height="30" as="geometry" />
        </mxCell>
        <mxCell id="ZLvA4eqqemo8EkUTMBz7-40" value="subject" style="text;html=1;strokeColor=none;fillColor=none;align=center;verticalAlign=middle;whiteSpace=wrap;rounded=0;" vertex="1" parent="1">
          <mxGeometry x="365.12" y="87.5" width="60" height="30" as="geometry" />
        </mxCell>
        <mxCell id="ZLvA4eqqemo8EkUTMBz7-41" value="goal id" style="text;html=1;strokeColor=none;fillColor=none;align=center;verticalAlign=middle;whiteSpace=wrap;rounded=0;" vertex="1" parent="1">
          <mxGeometry x="253.12" y="194.37" width="60" height="30" as="geometry" />
        </mxCell>
        <mxCell id="ZLvA4eqqemo8EkUTMBz7-42" value="goal name" style="text;html=1;strokeColor=none;fillColor=none;align=center;verticalAlign=middle;whiteSpace=wrap;rounded=0;" vertex="1" parent="1">
          <mxGeometry x="313.12" y="194.37" width="60" height="30" as="geometry" />
        </mxCell>
        <mxCell id="ZLvA4eqqemo8EkUTMBz7-43" value="goal description" style="text;html=1;strokeColor=none;fillColor=none;align=center;verticalAlign=middle;whiteSpace=wrap;rounded=0;" vertex="1" parent="1">
          <mxGeometry x="383.12" y="194.37" width="60" height="30" as="geometry" />
        </mxCell>
        <mxCell id="ZLvA4eqqemo8EkUTMBz7-44" value="plan id" style="text;html=1;strokeColor=none;fillColor=none;align=center;verticalAlign=middle;whiteSpace=wrap;rounded=0;" vertex="1" parent="1">
          <mxGeometry x="258.12" y="298.75" width="60" height="30" as="geometry" />
        </mxCell>
        <mxCell id="ZLvA4eqqemo8EkUTMBz7-45" value="plan name" style="text;html=1;strokeColor=none;fillColor=none;align=center;verticalAlign=middle;whiteSpace=wrap;rounded=0;" vertex="1" parent="1">
          <mxGeometry x="318.12" y="298.75" width="60" height="30" as="geometry" />
        </mxCell>
        <mxCell id="ZLvA4eqqemo8EkUTMBz7-46" value="plan author" style="text;html=1;strokeColor=none;fillColor=none;align=center;verticalAlign=middle;whiteSpace=wrap;rounded=0;" vertex="1" parent="1">
          <mxGeometry x="428.12" y="298.75" width="60" height="30" as="geometry" />
        </mxCell>
        <mxCell id="ZLvA4eqqemo8EkUTMBz7-47" value="resource id" style="text;html=1;strokeColor=none;fillColor=none;align=center;verticalAlign=middle;whiteSpace=wrap;rounded=0;" vertex="1" parent="1">
          <mxGeometry x="215.87" y="401.87" width="60" height="30" as="geometry" />
        </mxCell>
        <mxCell id="ZLvA4eqqemo8EkUTMBz7-48" value="resource name" style="text;html=1;strokeColor=none;fillColor=none;align=center;verticalAlign=middle;whiteSpace=wrap;rounded=0;" vertex="1" parent="1">
          <mxGeometry x="275.87" y="401.87" width="60" height="30" as="geometry" />
        </mxCell>
        <mxCell id="ZLvA4eqqemo8EkUTMBz7-49" value="resource" style="text;html=1;strokeColor=none;fillColor=none;align=center;verticalAlign=middle;whiteSpace=wrap;rounded=0;" vertex="1" parent="1">
          <mxGeometry x="335.87" y="401.87" width="60" height="30" as="geometry" />
        </mxCell>
        <mxCell id="ZLvA4eqqemo8EkUTMBz7-50" value="resource author" style="text;html=1;strokeColor=none;fillColor=none;align=center;verticalAlign=middle;whiteSpace=wrap;rounded=0;" vertex="1" parent="1">
          <mxGeometry x="405.87" y="401.87" width="60" height="30" as="geometry" />
        </mxCell>
        <mxCell id="ZLvA4eqqemo8EkUTMBz7-51" value="plan" style="text;html=1;strokeColor=none;fillColor=none;align=center;verticalAlign=middle;whiteSpace=wrap;rounded=0;" vertex="1" parent="1">
          <mxGeometry x="382.12" y="298.75" width="60" height="30" as="geometry" />
        </mxCell>
        <mxCell id="ZLvA4eqqemo8EkUTMBz7-52" value="lesson plan id" style="text;html=1;strokeColor=none;fillColor=none;align=center;verticalAlign=middle;whiteSpace=wrap;rounded=0;" vertex="1" parent="1">
          <mxGeometry x="272.37" y="494.37" width="60" height="30" as="geometry" />
        </mxCell>
        <mxCell id="ZLvA4eqqemo8EkUTMBz7-53" value="plan id" style="text;html=1;strokeColor=none;fillColor=none;align=center;verticalAlign=middle;whiteSpace=wrap;rounded=0;" vertex="1" parent="1">
          <mxGeometry x="332.37" y="494.37" width="60" height="30" as="geometry" />
        </mxCell>
        <mxCell id="ZLvA4eqqemo8EkUTMBz7-54" value="resource id" style="text;html=1;strokeColor=none;fillColor=none;align=center;verticalAlign=middle;whiteSpace=wrap;rounded=0;" vertex="1" parent="1">
          <mxGeometry x="387.37" y="494.37" width="70" height="30" as="geometry" />
        </mxCell>
        <mxCell id="ZLvA4eqqemo8EkUTMBz7-55" value="evidence id" style="text;html=1;strokeColor=none;fillColor=none;align=center;verticalAlign=middle;whiteSpace=wrap;rounded=0;" vertex="1" parent="1">
          <mxGeometry x="273.12" y="711.87" width="60" height="30" as="geometry" />
        </mxCell>
        <mxCell id="ZLvA4eqqemo8EkUTMBz7-56" value="evidence" style="text;html=1;strokeColor=none;fillColor=none;align=center;verticalAlign=middle;whiteSpace=wrap;rounded=0;" vertex="1" parent="1">
          <mxGeometry x="333.12" y="711.87" width="60" height="30" as="geometry" />
        </mxCell>
        <mxCell id="ZLvA4eqqemo8EkUTMBz7-57" value="pupil id" style="text;html=1;strokeColor=none;fillColor=none;align=center;verticalAlign=middle;whiteSpace=wrap;rounded=0;" vertex="1" parent="1">
          <mxGeometry x="-30" y="445" width="60" height="30" as="geometry" />
        </mxCell>
        <mxCell id="ZLvA4eqqemo8EkUTMBz7-58" value="goal id" style="text;html=1;strokeColor=none;fillColor=none;align=center;verticalAlign=middle;whiteSpace=wrap;rounded=0;" vertex="1" parent="1">
          <mxGeometry x="30" y="445" width="60" height="30" as="geometry" />
        </mxCell>
        <mxCell id="ZLvA4eqqemo8EkUTMBz7-59" value="evidence id" style="text;html=1;strokeColor=none;fillColor=none;align=center;verticalAlign=middle;whiteSpace=wrap;rounded=0;" vertex="1" parent="1">
          <mxGeometry x="90" y="445" width="60" height="30" as="geometry" />
        </mxCell>
        <mxCell id="ZLvA4eqqemo8EkUTMBz7-60" value="term id" style="text;html=1;strokeColor=none;fillColor=none;align=center;verticalAlign=middle;whiteSpace=wrap;rounded=0;" vertex="1" parent="1">
          <mxGeometry x="-470" y="490" width="60" height="30" as="geometry" />
        </mxCell>
        <mxCell id="ZLvA4eqqemo8EkUTMBz7-61" value="term name" style="text;html=1;strokeColor=none;fillColor=none;align=center;verticalAlign=middle;whiteSpace=wrap;rounded=0;" vertex="1" parent="1">
          <mxGeometry x="-410" y="490" width="60" height="30" as="geometry" />
        </mxCell>
        <mxCell id="ZLvA4eqqemo8EkUTMBz7-62" value="term start date" style="text;html=1;strokeColor=none;fillColor=none;align=center;verticalAlign=middle;whiteSpace=wrap;rounded=0;" vertex="1" parent="1">
          <mxGeometry x="-350" y="490" width="60" height="30" as="geometry" />
        </mxCell>
        <mxCell id="ZLvA4eqqemo8EkUTMBz7-63" value="term end date" style="text;html=1;strokeColor=none;fillColor=none;align=center;verticalAlign=middle;whiteSpace=wrap;rounded=0;" vertex="1" parent="1">
          <mxGeometry x="-280" y="490" width="60" height="30" as="geometry" />
        </mxCell>
        <mxCell id="ZLvA4eqqemo8EkUTMBz7-64" value="term id" style="text;html=1;strokeColor=none;fillColor=none;align=center;verticalAlign=middle;whiteSpace=wrap;rounded=0;" vertex="1" parent="1">
          <mxGeometry x="20" y="324.38" width="60" height="30" as="geometry" />
        </mxCell>
        <mxCell id="ZLvA4eqqemo8EkUTMBz7-65" value="goal id" style="text;html=1;strokeColor=none;fillColor=none;align=center;verticalAlign=middle;whiteSpace=wrap;rounded=0;" vertex="1" parent="1">
          <mxGeometry x="70" y="324.38" width="60" height="30" as="geometry" />
        </mxCell>
        <mxCell id="ZLvA4eqqemo8EkUTMBz7-66" value="teacher id" style="text;html=1;strokeColor=none;fillColor=none;align=center;verticalAlign=middle;whiteSpace=wrap;rounded=0;" vertex="1" parent="1">
          <mxGeometry x="-500" y="400" width="60" height="30" as="geometry" />
        </mxCell>
        <mxCell id="ZLvA4eqqemo8EkUTMBz7-67" value="teacher name" style="text;html=1;strokeColor=none;fillColor=none;align=center;verticalAlign=middle;whiteSpace=wrap;rounded=0;" vertex="1" parent="1">
          <mxGeometry x="-430" y="400" width="60" height="30" as="geometry" />
        </mxCell>
        <mxCell id="ZLvA4eqqemo8EkUTMBz7-68" value="username" style="text;html=1;strokeColor=none;fillColor=none;align=center;verticalAlign=middle;whiteSpace=wrap;rounded=0;" vertex="1" parent="1">
          <mxGeometry x="-370" y="400" width="60" height="30" as="geometry" />
        </mxCell>
        <mxCell id="ZLvA4eqqemo8EkUTMBz7-69" value="email" style="text;html=1;strokeColor=none;fillColor=none;align=center;verticalAlign=middle;whiteSpace=wrap;rounded=0;" vertex="1" parent="1">
          <mxGeometry x="-296" y="400" width="60" height="30" as="geometry" />
        </mxCell>
        <mxCell id="ZLvA4eqqemo8EkUTMBz7-70" value="school id" style="text;html=1;strokeColor=none;fillColor=none;align=center;verticalAlign=middle;whiteSpace=wrap;rounded=0;" vertex="1" parent="1">
          <mxGeometry x="-236" y="400" width="60" height="30" as="geometry" />
        </mxCell>
        <mxCell id="ZLvA4eqqemo8EkUTMBz7-71" value="owner id(from teacher)" style="text;html=1;strokeColor=none;fillColor=none;align=center;verticalAlign=middle;whiteSpace=wrap;rounded=0;" vertex="1" parent="1">
          <mxGeometry x="-435" y="95" width="60" height="30" as="geometry" />
        </mxCell>
        <mxCell id="ZLvA4eqqemo8EkUTMBz7-72" value="creation date" style="text;html=1;strokeColor=none;fillColor=none;align=center;verticalAlign=middle;whiteSpace=wrap;rounded=0;" vertex="1" parent="1">
          <mxGeometry x="208.12" y="298.75" width="60" height="30" as="geometry" />
        </mxCell>
        <mxCell id="ZLvA4eqqemo8EkUTMBz7-73" value="creation date" style="text;html=1;strokeColor=none;fillColor=none;align=center;verticalAlign=middle;whiteSpace=wrap;rounded=0;" vertex="1" parent="1">
          <mxGeometry x="462.87" y="401.87" width="60" height="30" as="geometry" />
        </mxCell>
        <mxCell id="ZLvA4eqqemo8EkUTMBz7-74" value="evidence date" style="text;html=1;strokeColor=none;fillColor=none;align=center;verticalAlign=middle;whiteSpace=wrap;rounded=0;" vertex="1" parent="1">
          <mxGeometry x="393.12" y="711.87" width="60" height="30" as="geometry" />
        </mxCell>
        <mxCell id="ZLvA4eqqemo8EkUTMBz7-75" value="Class ID" style="text;html=1;strokeColor=none;fillColor=none;align=center;verticalAlign=middle;whiteSpace=wrap;rounded=0;" vertex="1" parent="1">
          <mxGeometry x="-270" y="300" width="60" height="30" as="geometry" />
        </mxCell>
        <mxCell id="ZLvA4eqqemo8EkUTMBz7-76" value="report id" style="text;html=1;strokeColor=none;fillColor=none;align=center;verticalAlign=middle;whiteSpace=wrap;rounded=0;" vertex="1" parent="1">
          <mxGeometry x="203.12" y="909.37" width="50" height="30" as="geometry" />
        </mxCell>
        <mxCell id="ZLvA4eqqemo8EkUTMBz7-77" value="report date" style="text;html=1;strokeColor=none;fillColor=none;align=center;verticalAlign=middle;whiteSpace=wrap;rounded=0;" vertex="1" parent="1">
          <mxGeometry x="253.12" y="909.37" width="60" height="30" as="geometry" />
        </mxCell>
        <mxCell id="ZLvA4eqqemo8EkUTMBz7-78" value="report name" style="text;html=1;strokeColor=none;fillColor=none;align=center;verticalAlign=middle;whiteSpace=wrap;rounded=0;" vertex="1" parent="1">
          <mxGeometry x="313.12" y="909.37" width="60" height="30" as="geometry" />
        </mxCell>
        <mxCell id="ZLvA4eqqemo8EkUTMBz7-79" value="class id" style="text;html=1;strokeColor=none;fillColor=none;align=center;verticalAlign=middle;whiteSpace=wrap;rounded=0;" vertex="1" parent="1">
          <mxGeometry x="363.12" y="909.37" width="60" height="30" as="geometry" />
        </mxCell>
        <mxCell id="ZLvA4eqqemo8EkUTMBz7-80" value="teacher id" style="text;html=1;strokeColor=none;fillColor=none;align=center;verticalAlign=middle;whiteSpace=wrap;rounded=0;" vertex="1" parent="1">
          <mxGeometry x="423.12" y="909.37" width="60" height="30" as="geometry" />
        </mxCell>
        <mxCell id="ZLvA4eqqemo8EkUTMBz7-81" value="pupil id" style="text;html=1;strokeColor=none;fillColor=none;align=center;verticalAlign=middle;whiteSpace=wrap;rounded=0;" vertex="1" parent="1">
          <mxGeometry x="483.12" y="909.37" width="60" height="30" as="geometry" />
        </mxCell>
        <mxCell id="ZLvA4eqqemo8EkUTMBz7-82" value="Classroom" style="text;html=1;strokeColor=none;fillColor=none;align=center;verticalAlign=middle;whiteSpace=wrap;rounded=0;" vertex="1" parent="1">
          <mxGeometry x="-365" y="155" width="60" height="30" as="geometry" />
        </mxCell>
        <mxCell id="ZLvA4eqqemo8EkUTMBz7-83" value="School" style="text;html=1;strokeColor=none;fillColor=none;align=center;verticalAlign=middle;whiteSpace=wrap;rounded=0;" vertex="1" parent="1">
          <mxGeometry x="-390" y="50" width="60" height="30" as="geometry" />
        </mxCell>
        <mxCell id="ZLvA4eqqemo8EkUTMBz7-84" value="Pupil" style="text;html=1;strokeColor=none;fillColor=none;align=center;verticalAlign=middle;whiteSpace=wrap;rounded=0;" vertex="1" parent="1">
          <mxGeometry x="-390" y="255" width="60" height="30" as="geometry" />
        </mxCell>
        <mxCell id="ZLvA4eqqemo8EkUTMBz7-85" value="Teacher" style="text;html=1;strokeColor=none;fillColor=none;align=center;verticalAlign=middle;whiteSpace=wrap;rounded=0;" vertex="1" parent="1">
          <mxGeometry x="-390" y="352.5" width="60" height="30" as="geometry" />
        </mxCell>
        <mxCell id="ZLvA4eqqemo8EkUTMBz7-86" value="term" style="text;html=1;strokeColor=none;fillColor=none;align=center;verticalAlign=middle;whiteSpace=wrap;rounded=0;" vertex="1" parent="1">
          <mxGeometry x="-390" y="450" width="60" height="30" as="geometry" />
        </mxCell>
        <mxCell id="ZLvA4eqqemo8EkUTMBz7-87" value="lesson plan" style="text;html=1;strokeColor=none;fillColor=none;align=center;verticalAlign=middle;whiteSpace=wrap;rounded=0;" vertex="1" parent="1">
          <mxGeometry x="335.87" y="451.87" width="85" height="30" as="geometry" />
        </mxCell>
        <mxCell id="ZLvA4eqqemo8EkUTMBz7-88" value="subject" style="text;html=1;strokeColor=none;fillColor=none;align=center;verticalAlign=middle;whiteSpace=wrap;rounded=0;" vertex="1" parent="1">
          <mxGeometry x="315.12" y="39.99999999999999" width="60" height="30" as="geometry" />
        </mxCell>
        <mxCell id="ZLvA4eqqemo8EkUTMBz7-89" value="evidence" style="text;html=1;strokeColor=none;fillColor=none;align=center;verticalAlign=middle;whiteSpace=wrap;rounded=0;" vertex="1" parent="1">
          <mxGeometry x="313.12" y="661.87" width="60" height="30" as="geometry" />
        </mxCell>
        <mxCell id="ZLvA4eqqemo8EkUTMBz7-90" value="goal" style="text;html=1;strokeColor=none;fillColor=none;align=center;verticalAlign=middle;whiteSpace=wrap;rounded=0;" vertex="1" parent="1">
          <mxGeometry x="313.12" y="146.87" width="60" height="30" as="geometry" />
        </mxCell>
        <mxCell id="ZLvA4eqqemo8EkUTMBz7-91" value="plan" style="text;html=1;strokeColor=none;fillColor=none;align=center;verticalAlign=middle;whiteSpace=wrap;rounded=0;" vertex="1" parent="1">
          <mxGeometry x="313.12" y="251.25" width="60" height="30" as="geometry" />
        </mxCell>
        <mxCell id="ZLvA4eqqemo8EkUTMBz7-92" value="resource" style="text;html=1;strokeColor=none;fillColor=none;align=center;verticalAlign=middle;whiteSpace=wrap;rounded=0;" vertex="1" parent="1">
          <mxGeometry x="325.87" y="351.87" width="60" height="30" as="geometry" />
        </mxCell>
        <mxCell id="ZLvA4eqqemo8EkUTMBz7-93" value="report" style="text;html=1;strokeColor=none;fillColor=none;align=center;verticalAlign=middle;whiteSpace=wrap;rounded=0;" vertex="1" parent="1">
          <mxGeometry x="351.12" y="861.87" width="60" height="30" as="geometry" />
        </mxCell>
        <mxCell id="ZLvA4eqqemo8EkUTMBz7-94" value="pupil_goal_evidence" style="text;html=1;strokeColor=none;fillColor=none;align=center;verticalAlign=middle;whiteSpace=wrap;rounded=0;" vertex="1" parent="1">
          <mxGeometry x="30" y="390" width="60" height="30" as="geometry" />
        </mxCell>
        <mxCell id="ZLvA4eqqemo8EkUTMBz7-95" value="term_goal" style="text;html=1;strokeColor=none;fillColor=none;align=center;verticalAlign=middle;whiteSpace=wrap;rounded=0;" vertex="1" parent="1">
          <mxGeometry x="46.5" y="284.38" width="60" height="30" as="geometry" />
        </mxCell>
        <mxCell id="ZLvA4eqqemo8EkUTMBz7-96" value="" style="rounded=0;whiteSpace=wrap;html=1;" vertex="1" parent="1">
          <mxGeometry x="184.12" y="594.37" width="343.5" height="60" as="geometry" />
        </mxCell>
        <mxCell id="ZLvA4eqqemo8EkUTMBz7-97" value="" style="rounded=0;whiteSpace=wrap;html=1;" vertex="1" parent="1">
          <mxGeometry x="184.12" y="569.37" width="343.5" height="25" as="geometry" />
        </mxCell>
        <mxCell id="ZLvA4eqqemo8EkUTMBz7-98" value="lesson id" style="text;html=1;strokeColor=none;fillColor=none;align=center;verticalAlign=middle;whiteSpace=wrap;rounded=0;" vertex="1" parent="1">
          <mxGeometry x="194.12" y="606.87" width="60" height="30" as="geometry" />
        </mxCell>
        <mxCell id="ZLvA4eqqemo8EkUTMBz7-99" value="lesson plan id" style="text;html=1;strokeColor=none;fillColor=none;align=center;verticalAlign=middle;whiteSpace=wrap;rounded=0;" vertex="1" parent="1">
          <mxGeometry x="254.12" y="606.87" width="60" height="30" as="geometry" />
        </mxCell>
        <mxCell id="ZLvA4eqqemo8EkUTMBz7-100" value="evidence id" style="text;html=1;strokeColor=none;fillColor=none;align=center;verticalAlign=middle;whiteSpace=wrap;rounded=0;" vertex="1" parent="1">
          <mxGeometry x="314.12" y="609.37" width="70" height="30" as="geometry" />
        </mxCell>
        <mxCell id="ZLvA4eqqemo8EkUTMBz7-101" value="lesson" style="text;html=1;strokeColor=none;fillColor=none;align=center;verticalAlign=middle;whiteSpace=wrap;rounded=0;" vertex="1" parent="1">
          <mxGeometry x="257.62" y="564.37" width="85" height="30" as="geometry" />
        </mxCell>
        <mxCell id="ZLvA4eqqemo8EkUTMBz7-102" value="lesson date" style="text;html=1;strokeColor=none;fillColor=none;align=center;verticalAlign=middle;whiteSpace=wrap;rounded=0;" vertex="1" parent="1">
          <mxGeometry x="384.12" y="609.37" width="70" height="30" as="geometry" />
        </mxCell>
        <mxCell id="ZLvA4eqqemo8EkUTMBz7-103" value="goal id" style="text;html=1;strokeColor=none;fillColor=none;align=center;verticalAlign=middle;whiteSpace=wrap;rounded=0;" vertex="1" parent="1">
          <mxGeometry x="457.62" y="606.87" width="70" height="30" as="geometry" />
        </mxCell>
        <mxCell id="ZLvA4eqqemo8EkUTMBz7-104" value="pupil id" style="text;html=1;strokeColor=none;fillColor=none;align=center;verticalAlign=middle;whiteSpace=wrap;rounded=0;" vertex="1" parent="1">
          <mxGeometry x="268.75" y="806.87" width="70" height="30" as="geometry" />
        </mxCell>
        <mxCell id="ZLvA4eqqemo8EkUTMBz7-105" value="goal id" style="text;html=1;strokeColor=none;fillColor=none;align=center;verticalAlign=middle;whiteSpace=wrap;rounded=0;" vertex="1" parent="1">
          <mxGeometry x="333.75" y="806.87" width="70" height="30" as="geometry" />
        </mxCell>
        <mxCell id="ZLvA4eqqemo8EkUTMBz7-106" value="evidence id" style="text;html=1;strokeColor=none;fillColor=none;align=center;verticalAlign=middle;whiteSpace=wrap;rounded=0;" vertex="1" parent="1">
          <mxGeometry x="393.25" y="806.87" width="70" height="30" as="geometry" />
        </mxCell>
        <mxCell id="ZLvA4eqqemo8EkUTMBz7-107" value="level 1-5" style="text;html=1;strokeColor=none;fillColor=none;align=center;verticalAlign=middle;whiteSpace=wrap;rounded=0;" vertex="1" parent="1">
          <mxGeometry x="463.25" y="806.87" width="70" height="30" as="geometry" />
        </mxCell>
        <mxCell id="ZLvA4eqqemo8EkUTMBz7-108" value="date" style="text;html=1;strokeColor=none;fillColor=none;align=center;verticalAlign=middle;whiteSpace=wrap;rounded=0;" vertex="1" parent="1">
          <mxGeometry x="1045.88" y="765" width="70" height="30" as="geometry" />
        </mxCell>
        <mxCell id="ZLvA4eqqemo8EkUTMBz7-109" value="date" style="text;html=1;strokeColor=none;fillColor=none;align=center;verticalAlign=middle;whiteSpace=wrap;rounded=0;" vertex="1" parent="1">
          <mxGeometry x="1045.88" y="765" width="70" height="30" as="geometry" />
        </mxCell>
        <mxCell id="ZLvA4eqqemo8EkUTMBz7-110" value="ability level id" style="text;html=1;strokeColor=none;fillColor=none;align=center;verticalAlign=middle;whiteSpace=wrap;rounded=0;" vertex="1" parent="1">
          <mxGeometry x="208.75" y="806.87" width="70" height="30" as="geometry" />
        </mxCell>
        <mxCell id="ZLvA4eqqemo8EkUTMBz7-111" value="ability" style="text;html=1;strokeColor=none;fillColor=none;align=center;verticalAlign=middle;whiteSpace=wrap;rounded=0;" vertex="1" parent="1">
          <mxGeometry x="311.75" y="761.87" width="60" height="30" as="geometry" />
        </mxCell>
        <mxCell id="ZLvA4eqqemo8EkUTMBz7-115" value="" style="rounded=0;whiteSpace=wrap;html=1;" vertex="1" parent="1">
          <mxGeometry x="-16.5" y="85.63" width="140" height="60" as="geometry" />
        </mxCell>
        <mxCell id="ZLvA4eqqemo8EkUTMBz7-116" value="" style="rounded=0;whiteSpace=wrap;html=1;" vertex="1" parent="1">
          <mxGeometry x="-16.5" y="60.63" width="140" height="25" as="geometry" />
        </mxCell>
        <mxCell id="ZLvA4eqqemo8EkUTMBz7-117" value="term id" style="text;html=1;strokeColor=none;fillColor=none;align=center;verticalAlign=middle;whiteSpace=wrap;rounded=0;" vertex="1" parent="1">
          <mxGeometry x="13.5" y="98.13" width="60" height="30" as="geometry" />
        </mxCell>
        <mxCell id="ZLvA4eqqemo8EkUTMBz7-118" value="school id" style="text;html=1;strokeColor=none;fillColor=none;align=center;verticalAlign=middle;whiteSpace=wrap;rounded=0;" vertex="1" parent="1">
          <mxGeometry x="63.5" y="98.13" width="60" height="30" as="geometry" />
        </mxCell>
        <mxCell id="ZLvA4eqqemo8EkUTMBz7-119" value="term_school" style="text;html=1;strokeColor=none;fillColor=none;align=center;verticalAlign=middle;whiteSpace=wrap;rounded=0;" vertex="1" parent="1">
          <mxGeometry x="40" y="58.13" width="60" height="30" as="geometry" />
        </mxCell>
        <mxCell id="ZLvA4eqqemo8EkUTMBz7-120" value="" style="rounded=0;whiteSpace=wrap;html=1;" vertex="1" parent="1">
          <mxGeometry x="-20" y="195.63" width="140" height="60" as="geometry" />
        </mxCell>
        <mxCell id="ZLvA4eqqemo8EkUTMBz7-121" value="" style="rounded=0;whiteSpace=wrap;html=1;" vertex="1" parent="1">
          <mxGeometry x="-20" y="170.63" width="140" height="25" as="geometry" />
        </mxCell>
        <mxCell id="ZLvA4eqqemo8EkUTMBz7-122" value="class id" style="text;html=1;strokeColor=none;fillColor=none;align=center;verticalAlign=middle;whiteSpace=wrap;rounded=0;" vertex="1" parent="1">
          <mxGeometry x="10" y="208.13" width="60" height="30" as="geometry" />
        </mxCell>
        <mxCell id="ZLvA4eqqemo8EkUTMBz7-123" value="subject id" style="text;html=1;strokeColor=none;fillColor=none;align=center;verticalAlign=middle;whiteSpace=wrap;rounded=0;" vertex="1" parent="1">
          <mxGeometry x="60" y="208.13" width="60" height="30" as="geometry" />
        </mxCell>
        <mxCell id="ZLvA4eqqemo8EkUTMBz7-124" value="class_subject" style="text;html=1;strokeColor=none;fillColor=none;align=center;verticalAlign=middle;whiteSpace=wrap;rounded=0;" vertex="1" parent="1">
          <mxGeometry x="36.5" y="168.13" width="60" height="30" as="geometry" />
        </mxCell>
      </root>
    </mxGraphModel>
  </diagram>
</mxfile>
